<svg width="106" height="106" viewBox="0 0 106 106" fill="none" xmlns="http://www.w3.org/2000/svg">
<path d="M8.73133 22.7415L8.37775 22.3879L8.02419 22.7415L5.56931 25.1967C4.40969 26.3564 2.52951 26.3562 1.36977 25.1967C0.210076 24.0369 0.210076 22.1568 1.36977 20.997L20.9965 1.36979C20.9965 1.36979 20.9965 1.36978 20.9965 1.36978C22.1563 0.210048 24.0364 0.210108 25.1958 1.36975L25.1959 1.36979C26.3556 2.5295 26.3556 4.40975 25.1959 5.56946L25.1958 5.56948L22.7442 8.02129L22.3907 8.37483L22.7442 8.72837L35.0091 20.9937L35.3627 21.3473L35.7162 20.9937L45.5298 11.1801L45.5298 11.1801C46.6893 10.0204 48.5697 10.0204 49.7292 11.1801L49.7292 11.1801C50.889 12.3399 50.889 14.22 49.7292 15.3798L44.8215 20.2875L44.468 20.641L44.8215 20.9946L86.5295 62.7035C91.414 67.5883 92.673 74.7274 90.3033 80.7746L90.1839 81.0792L90.4153 81.3105L93.8891 84.7843C95.5734 86.469 96.1301 88.8547 95.5568 91.0039L95.4825 91.2825L95.6864 91.4863L103.703 99.5032C104.863 100.663 104.863 102.543 103.703 103.703C102.543 104.863 100.663 104.863 99.5036 103.703L99.15 104.056L99.5036 103.703L91.4882 95.6872L91.2842 95.4832L91.0055 95.5578C88.8554 96.1327 86.4681 95.5763 84.7826 93.8908L81.3085 90.4167L81.0772 90.1854L80.7726 90.3047C74.726 92.6739 67.5875 91.4148 62.7033 86.5303L20.9953 44.8214L20.6417 44.4679L20.2881 44.8214L15.3826 49.7273C14.2228 50.8871 12.3427 50.8871 11.1832 49.7274L11.1832 49.7273C10.0234 48.5675 10.0234 46.6874 11.1832 45.5276L10.8728 45.2172L11.1832 45.5276L20.9965 35.7141L21.35 35.3605L20.9965 35.007L8.73133 22.7415ZM31.4757 25.2342L31.8293 24.8806L31.4757 24.5271L19.2108 12.2619L18.8573 11.9084L18.5037 12.2619L12.2647 18.501L11.9112 18.8545L12.2647 19.2081L24.5299 31.4735L24.8834 31.8271L25.237 31.4735L31.4757 25.2342ZM41.2881 24.5283L40.9345 24.1748L40.581 24.5283L24.5287 40.5809L24.1751 40.9345L24.5287 41.288L37.7402 54.4995L38.0937 54.8531L38.4473 54.4995L54.4996 38.4469L54.8531 38.0934L54.4996 37.7398L41.2881 24.5283ZM42.6467 58.6992L42.2931 59.0528L42.6467 59.4063L50.0068 66.7668L50.3604 67.1204L50.714 66.7668L56.2873 61.1934C57.4471 60.0337 59.3272 60.0337 60.487 61.1934L60.487 61.1935C61.6467 62.3529 61.6468 64.2333 60.487 65.3931L54.9136 70.9665L54.5601 71.32L54.9136 71.6736L59.8189 76.5792L60.1725 76.9327L60.526 76.5792L66.1 71.0052C67.2598 69.8455 69.1399 69.8455 70.2997 71.0052C71.4592 72.165 71.4592 74.0452 70.2996 75.2049L64.7257 80.7789L64.3722 81.1324L64.7257 81.486L66.2367 82.9969C69.6749 86.4352 74.6995 87.3183 78.9523 85.6492L79.0494 85.611L79.1232 85.5373L85.5365 79.1237L85.6102 79.05L85.6483 78.9529C87.3175 74.7 86.4344 69.6755 82.9961 66.2369L59.4061 42.6466L59.0525 42.293L58.699 42.6466L42.6467 58.6992ZM90.3311 89.2017L90.8311 88.9193L90.4826 88.4629C90.4435 88.4117 90.4014 88.3639 90.3574 88.3195L90.3557 88.3178L87.8846 85.8467L87.5115 85.4736L87.159 85.8661C86.9563 86.0919 86.7466 86.3133 86.5295 86.5303C86.3121 86.7477 86.0905 86.9577 85.8646 87.1602L85.4717 87.5127L85.8449 87.886L88.316 90.3574L88.3178 90.3591C88.3635 90.4044 88.4116 90.4462 88.4615 90.4845L88.9189 90.8348L89.2013 90.3326C89.3305 90.1029 89.4933 89.8864 89.69 89.6896C89.8862 89.4935 90.1021 89.3311 90.3311 89.2017Z" fill="#B01368" stroke="black"/>
</svg>
